<mxfile host="app.diagrams.net" modified="2024-01-23T15:33:03.289Z" agent="Mozilla/5.0 (Windows NT 10.0; Win64; x64) AppleWebKit/537.36 (KHTML, like Gecko) Chrome/120.0.0.0 Safari/537.36" etag="jRj9bi1WsY0u6_BfJZRl" version="22.1.21" type="device">
  <diagram name="Page-1" id="fc2ac565-0d4e-3f0d-88b0-a54af1634ed7">
    <mxGraphModel dx="1278" dy="1287" grid="1" gridSize="10" guides="1" tooltips="1" connect="0" arrows="1" fold="1" page="1" pageScale="1.5" pageWidth="1169" pageHeight="827" background="none" math="0" shadow="0">
      <root>
        <mxCell id="0" style=";html=1;" />
        <mxCell id="1" style=";html=1;" parent="0" />
        <mxCell id="4j_LOv_7RKqF5dBRp_pr-147" value="" style="group" vertex="1" connectable="0" parent="1">
          <mxGeometry x="150" y="434" width="1050" height="372" as="geometry" />
        </mxCell>
        <mxCell id="4j_LOv_7RKqF5dBRp_pr-145" value="" style="rounded=0;whiteSpace=wrap;html=1;strokeColor=none;fillColor=#FFFFFF;" vertex="1" parent="4j_LOv_7RKqF5dBRp_pr-147">
          <mxGeometry width="1050" height="372" as="geometry" />
        </mxCell>
        <mxCell id="75" value="&lt;font style=&quot;font-size: 15px;&quot;&gt;&lt;b&gt;Requirement Gathering&lt;/b&gt;&lt;/font&gt;" style="align=left;strokeColor=#FFFFFF;html=1;fillColor=#ffcc99;spacingLeft=16;" parent="4j_LOv_7RKqF5dBRp_pr-147" vertex="1">
          <mxGeometry x="17" y="25" width="1012.9999999999999" height="50" as="geometry" />
        </mxCell>
        <mxCell id="4j_LOv_7RKqF5dBRp_pr-104" value="&lt;font style=&quot;font-size: 15px;&quot;&gt;&lt;b&gt;Analysis&lt;/b&gt;&lt;/font&gt;" style="align=left;strokeColor=#FFFFFF;html=1;fillColor=#A3C8FF;spacingLeft=16;" vertex="1" parent="4j_LOv_7RKqF5dBRp_pr-147">
          <mxGeometry x="17" y="75" width="1012.9999999999999" height="50" as="geometry" />
        </mxCell>
        <mxCell id="4j_LOv_7RKqF5dBRp_pr-108" value="&lt;font style=&quot;font-size: 15px;&quot;&gt;&lt;b&gt;Design&lt;/b&gt;&lt;/font&gt;" style="align=left;strokeColor=#FFFFFF;html=1;fillColor=#ffcc99;spacingLeft=16;" vertex="1" parent="4j_LOv_7RKqF5dBRp_pr-147">
          <mxGeometry x="17" y="125" width="1012.9999999999999" height="50" as="geometry" />
        </mxCell>
        <mxCell id="4j_LOv_7RKqF5dBRp_pr-111" value="&lt;font style=&quot;font-size: 15px;&quot;&gt;&lt;b&gt;Coding&lt;/b&gt;&lt;/font&gt;" style="align=left;strokeColor=#FFFFFF;html=1;fillColor=#A3C8FF;spacingLeft=16;" vertex="1" parent="4j_LOv_7RKqF5dBRp_pr-147">
          <mxGeometry x="17" y="175" width="1012.9999999999999" height="50" as="geometry" />
        </mxCell>
        <mxCell id="4j_LOv_7RKqF5dBRp_pr-115" value="&lt;font style=&quot;font-size: 15px;&quot;&gt;&lt;b&gt;Testing&lt;/b&gt;&lt;/font&gt;" style="align=left;strokeColor=#FFFFFF;html=1;fillColor=#ffcc99;spacingLeft=16;" vertex="1" parent="4j_LOv_7RKqF5dBRp_pr-147">
          <mxGeometry x="17" y="225" width="1012.9999999999999" height="50" as="geometry" />
        </mxCell>
        <mxCell id="4j_LOv_7RKqF5dBRp_pr-118" value="&lt;font style=&quot;font-size: 15px;&quot;&gt;&lt;b&gt;Documentation&lt;/b&gt;&lt;/font&gt;" style="align=left;strokeColor=#FFFFFF;html=1;fillColor=#A3C8FF;spacingLeft=16;" vertex="1" parent="4j_LOv_7RKqF5dBRp_pr-147">
          <mxGeometry x="17" y="275" width="1012.9999999999999" height="50" as="geometry" />
        </mxCell>
        <mxCell id="4j_LOv_7RKqF5dBRp_pr-135" value="" style="rounded=0;whiteSpace=wrap;html=1;strokeColor=none;opacity=50;fillColor=default;" vertex="1" parent="4j_LOv_7RKqF5dBRp_pr-147">
          <mxGeometry x="219" y="25" width="810" height="300" as="geometry" />
        </mxCell>
        <mxCell id="4j_LOv_7RKqF5dBRp_pr-120" value="" style="endArrow=none;html=1;rounded=1;curved=0;strokeColor=#FFFFFF;strokeWidth=2;" edge="1" parent="4j_LOv_7RKqF5dBRp_pr-147">
          <mxGeometry width="50" height="50" relative="1" as="geometry">
            <mxPoint x="219" y="25" as="sourcePoint" />
            <mxPoint x="219" y="325" as="targetPoint" />
          </mxGeometry>
        </mxCell>
        <mxCell id="4j_LOv_7RKqF5dBRp_pr-121" value="" style="endArrow=none;html=1;rounded=1;strokeColor=#FFFFFF;strokeWidth=1.25;curved=0;" edge="1" parent="4j_LOv_7RKqF5dBRp_pr-147">
          <mxGeometry width="50" height="50" relative="1" as="geometry">
            <mxPoint x="317" y="325" as="sourcePoint" />
            <mxPoint x="317" y="25" as="targetPoint" />
          </mxGeometry>
        </mxCell>
        <mxCell id="4j_LOv_7RKqF5dBRp_pr-122" value="" style="endArrow=none;html=1;rounded=1;strokeColor=#FFFFFF;strokeWidth=1.25;curved=0;" edge="1" parent="4j_LOv_7RKqF5dBRp_pr-147">
          <mxGeometry width="50" height="50" relative="1" as="geometry">
            <mxPoint x="425" y="325" as="sourcePoint" />
            <mxPoint x="425" y="25" as="targetPoint" />
          </mxGeometry>
        </mxCell>
        <mxCell id="4j_LOv_7RKqF5dBRp_pr-123" value="" style="endArrow=none;html=1;rounded=1;strokeColor=#FFFFFF;strokeWidth=1.25;curved=0;" edge="1" parent="4j_LOv_7RKqF5dBRp_pr-147">
          <mxGeometry width="50" height="50" relative="1" as="geometry">
            <mxPoint x="534" y="325" as="sourcePoint" />
            <mxPoint x="531" y="25" as="targetPoint" />
          </mxGeometry>
        </mxCell>
        <mxCell id="4j_LOv_7RKqF5dBRp_pr-124" value="" style="endArrow=none;html=1;rounded=1;strokeColor=#FFFFFF;strokeWidth=1.25;curved=0;" edge="1" parent="4j_LOv_7RKqF5dBRp_pr-147">
          <mxGeometry width="50" height="50" relative="1" as="geometry">
            <mxPoint x="642" y="325" as="sourcePoint" />
            <mxPoint x="639" y="25" as="targetPoint" />
          </mxGeometry>
        </mxCell>
        <mxCell id="4j_LOv_7RKqF5dBRp_pr-125" value="" style="endArrow=none;html=1;rounded=1;strokeColor=#FFFFFF;strokeWidth=1.25;curved=0;" edge="1" parent="4j_LOv_7RKqF5dBRp_pr-147">
          <mxGeometry width="50" height="50" relative="1" as="geometry">
            <mxPoint x="751" y="325" as="sourcePoint" />
            <mxPoint x="748" y="25" as="targetPoint" />
          </mxGeometry>
        </mxCell>
        <mxCell id="4j_LOv_7RKqF5dBRp_pr-126" value="" style="endArrow=none;html=1;rounded=1;strokeColor=#FFFFFF;strokeWidth=1.25;curved=0;" edge="1" parent="4j_LOv_7RKqF5dBRp_pr-147">
          <mxGeometry width="50" height="50" relative="1" as="geometry">
            <mxPoint x="859" y="325" as="sourcePoint" />
            <mxPoint x="856" y="25" as="targetPoint" />
          </mxGeometry>
        </mxCell>
        <mxCell id="4j_LOv_7RKqF5dBRp_pr-127" value="" style="endArrow=none;html=1;rounded=1;strokeColor=#FFFFFF;strokeWidth=1.25;curved=0;" edge="1" parent="4j_LOv_7RKqF5dBRp_pr-147">
          <mxGeometry width="50" height="50" relative="1" as="geometry">
            <mxPoint x="969" y="325" as="sourcePoint" />
            <mxPoint x="966" y="25" as="targetPoint" />
          </mxGeometry>
        </mxCell>
        <mxCell id="4j_LOv_7RKqF5dBRp_pr-128" value="2023-12-10" style="text;html=1;strokeColor=none;fillColor=none;align=center;verticalAlign=middle;whiteSpace=wrap;rounded=0;fontStyle=1;fontSize=13;labelBorderColor=none;" vertex="1" parent="4j_LOv_7RKqF5dBRp_pr-147">
          <mxGeometry x="277" y="333" width="70" height="30" as="geometry" />
        </mxCell>
        <mxCell id="4j_LOv_7RKqF5dBRp_pr-129" value="2023-12-17" style="text;html=1;strokeColor=none;fillColor=none;align=center;verticalAlign=middle;whiteSpace=wrap;rounded=0;fontStyle=1;fontSize=13;labelBorderColor=none;" vertex="1" parent="4j_LOv_7RKqF5dBRp_pr-147">
          <mxGeometry x="387" y="333" width="70" height="30" as="geometry" />
        </mxCell>
        <mxCell id="4j_LOv_7RKqF5dBRp_pr-130" value="2023-12-24" style="text;html=1;strokeColor=none;fillColor=none;align=center;verticalAlign=middle;whiteSpace=wrap;rounded=0;fontStyle=1;fontSize=13;labelBorderColor=none;" vertex="1" parent="4j_LOv_7RKqF5dBRp_pr-147">
          <mxGeometry x="496" y="333" width="70" height="30" as="geometry" />
        </mxCell>
        <mxCell id="4j_LOv_7RKqF5dBRp_pr-131" value="2023-12-31" style="text;html=1;strokeColor=none;fillColor=none;align=center;verticalAlign=middle;whiteSpace=wrap;rounded=0;fontStyle=1;fontSize=13;labelBorderColor=none;" vertex="1" parent="4j_LOv_7RKqF5dBRp_pr-147">
          <mxGeometry x="607" y="333" width="70" height="30" as="geometry" />
        </mxCell>
        <mxCell id="4j_LOv_7RKqF5dBRp_pr-132" value="2023-12-10" style="text;html=1;strokeColor=none;fillColor=none;align=center;verticalAlign=middle;whiteSpace=wrap;rounded=0;fontStyle=1;fontSize=13;labelBorderColor=none;" vertex="1" parent="4j_LOv_7RKqF5dBRp_pr-147">
          <mxGeometry x="717" y="333" width="70" height="30" as="geometry" />
        </mxCell>
        <mxCell id="4j_LOv_7RKqF5dBRp_pr-133" value="2024-01-14" style="text;html=1;strokeColor=none;fillColor=none;align=center;verticalAlign=middle;whiteSpace=wrap;rounded=0;fontStyle=1;fontSize=13;labelBorderColor=none;" vertex="1" parent="4j_LOv_7RKqF5dBRp_pr-147">
          <mxGeometry x="827" y="333" width="70" height="30" as="geometry" />
        </mxCell>
        <mxCell id="4j_LOv_7RKqF5dBRp_pr-134" value="2024-01-21" style="text;html=1;strokeColor=none;fillColor=none;align=center;verticalAlign=middle;whiteSpace=wrap;rounded=0;fontStyle=1;fontSize=13;labelBorderColor=none;" vertex="1" parent="4j_LOv_7RKqF5dBRp_pr-147">
          <mxGeometry x="934" y="333" width="70" height="30" as="geometry" />
        </mxCell>
        <mxCell id="4j_LOv_7RKqF5dBRp_pr-105" value="" style="whiteSpace=wrap;html=1;strokeWidth=2;fillColor=#0050ef;fontSize=14;align=center;strokeColor=none;fontColor=#ffffff;rounded=1;arcSize=50;" vertex="1" parent="4j_LOv_7RKqF5dBRp_pr-147">
          <mxGeometry x="319" y="83" width="151" height="34" as="geometry" />
        </mxCell>
        <mxCell id="4j_LOv_7RKqF5dBRp_pr-106" value="" style="whiteSpace=wrap;html=1;strokeWidth=2;fillColor=#0050ef;fontSize=14;align=center;strokeColor=none;fontColor=#ffffff;rounded=1;arcSize=50;" vertex="1" parent="4j_LOv_7RKqF5dBRp_pr-147">
          <mxGeometry x="219" y="33" width="97" height="34" as="geometry" />
        </mxCell>
        <mxCell id="4j_LOv_7RKqF5dBRp_pr-109" value="" style="whiteSpace=wrap;html=1;strokeWidth=2;fillColor=#0050ef;fontSize=14;align=center;strokeColor=none;fontColor=#ffffff;rounded=1;arcSize=50;" vertex="1" parent="4j_LOv_7RKqF5dBRp_pr-147">
          <mxGeometry x="474" y="133" width="460" height="34" as="geometry" />
        </mxCell>
        <mxCell id="4j_LOv_7RKqF5dBRp_pr-112" value="" style="whiteSpace=wrap;html=1;strokeWidth=2;fillColor=#0050ef;fontSize=14;align=center;strokeColor=none;fontColor=#ffffff;rounded=1;arcSize=50;" vertex="1" parent="4j_LOv_7RKqF5dBRp_pr-147">
          <mxGeometry x="500" y="183" width="342" height="34" as="geometry" />
        </mxCell>
        <mxCell id="4j_LOv_7RKqF5dBRp_pr-116" value="" style="whiteSpace=wrap;html=1;strokeWidth=2;fillColor=#0050ef;fontSize=14;align=center;strokeColor=none;fontColor=#ffffff;rounded=1;arcSize=50;" vertex="1" parent="4j_LOv_7RKqF5dBRp_pr-147">
          <mxGeometry x="928" y="233" width="55" height="34" as="geometry" />
        </mxCell>
        <mxCell id="4j_LOv_7RKqF5dBRp_pr-119" value="" style="whiteSpace=wrap;html=1;strokeWidth=2;fillColor=#0050ef;fontSize=14;align=center;strokeColor=none;fontColor=#ffffff;rounded=1;arcSize=50;" vertex="1" parent="4j_LOv_7RKqF5dBRp_pr-147">
          <mxGeometry x="220" y="283" width="622" height="34" as="geometry" />
        </mxCell>
        <mxCell id="4j_LOv_7RKqF5dBRp_pr-139" value="6 Days" style="text;html=1;strokeColor=none;fillColor=none;align=center;verticalAlign=middle;whiteSpace=wrap;rounded=0;fontColor=#FFFFFF;fontStyle=1" vertex="1" parent="4j_LOv_7RKqF5dBRp_pr-147">
          <mxGeometry x="237.5" y="35" width="60" height="30" as="geometry" />
        </mxCell>
        <mxCell id="4j_LOv_7RKqF5dBRp_pr-140" value="10 Days" style="text;html=1;strokeColor=none;fillColor=none;align=center;verticalAlign=middle;whiteSpace=wrap;rounded=0;fontColor=#FFFFFF;fontStyle=1" vertex="1" parent="4j_LOv_7RKqF5dBRp_pr-147">
          <mxGeometry x="367" y="85" width="60" height="30" as="geometry" />
        </mxCell>
        <mxCell id="4j_LOv_7RKqF5dBRp_pr-141" value="30 Days" style="text;html=1;strokeColor=none;fillColor=none;align=center;verticalAlign=middle;whiteSpace=wrap;rounded=0;fontColor=#FFFFFF;fontStyle=1" vertex="1" parent="4j_LOv_7RKqF5dBRp_pr-147">
          <mxGeometry x="685" y="134" width="60" height="30" as="geometry" />
        </mxCell>
        <mxCell id="4j_LOv_7RKqF5dBRp_pr-142" value="22 Days" style="text;html=1;strokeColor=none;fillColor=none;align=center;verticalAlign=middle;whiteSpace=wrap;rounded=0;fontColor=#FFFFFF;fontStyle=1" vertex="1" parent="4j_LOv_7RKqF5dBRp_pr-147">
          <mxGeometry x="647" y="185" width="60" height="30" as="geometry" />
        </mxCell>
        <mxCell id="4j_LOv_7RKqF5dBRp_pr-143" value="3 Days" style="text;html=1;strokeColor=none;fillColor=none;align=center;verticalAlign=middle;whiteSpace=wrap;rounded=0;fontColor=#FFFFFF;fontStyle=1" vertex="1" parent="4j_LOv_7RKqF5dBRp_pr-147">
          <mxGeometry x="925.5" y="234" width="60" height="30" as="geometry" />
        </mxCell>
        <mxCell id="4j_LOv_7RKqF5dBRp_pr-144" value="51 Days" style="text;html=1;strokeColor=none;fillColor=none;align=center;verticalAlign=middle;whiteSpace=wrap;rounded=0;fontColor=#FFFFFF;fontStyle=1" vertex="1" parent="4j_LOv_7RKqF5dBRp_pr-147">
          <mxGeometry x="506" y="283" width="60" height="30" as="geometry" />
        </mxCell>
      </root>
    </mxGraphModel>
  </diagram>
</mxfile>
